<?xml version="1.0" encoding="utf-8"?>
<!-- Generated by IcoMoon.io -->
<!DOCTYPE svg PUBLIC "-//W3C//DTD SVG 1.1//EN" "http://www.w3.org/Graphics/SVG/1.1/DTD/svg11.dtd">
<svg version="1.1" xmlns="http://www.w3.org/2000/svg" xmlns:xlink="http://www.w3.org/1999/xlink" width="30" height="30" viewBox="0 0 30 30">
	<path d="M15 3.75c-7.249 0-13.125 5.876-13.125 13.125s5.876 13.125 13.125 13.125 13.125-5.876 13.125-13.125-5.876-13.125-13.125-13.125zM15 27.422c-5.825 0-10.547-4.722-10.547-10.547 0-5.825 4.722-10.547 10.547-10.547 5.825 0 10.547 4.722 10.547 10.547 0 5.825-4.722 10.547-10.547 10.547zM27.386 8.413c0.47-0.822 0.739-1.774 0.739-2.788 0-3.107-2.518-5.625-5.625-5.625-1.811 0-3.422 0.856-4.451 2.185 3.864 0.798 7.184 3.082 9.337 6.228zM11.951 2.185c-1.029-1.329-2.64-2.185-4.451-2.185-3.107 0-5.625 2.518-5.625 5.625 0 1.015 0.269 1.966 0.739 2.788 2.153-3.146 5.473-5.43 9.337-6.228zM13.125 9.375h1.875v9.375h-1.875v-9.375zM15 16.875h5.625v1.875h-5.625v-1.875z" fill="#eeeeee" />
</svg>
