<?xml version="1.0" encoding="utf-8"?>
<!-- Generated by IcoMoon.io -->
<!DOCTYPE svg PUBLIC "-//W3C//DTD SVG 1.1//EN" "http://www.w3.org/Graphics/SVG/1.1/DTD/svg11.dtd">
<svg version="1.1" xmlns="http://www.w3.org/2000/svg" xmlns:xlink="http://www.w3.org/1999/xlink" width="30" height="30" viewBox="0 0 30 30">
	<path d="M4.393 25.606c-5.858-5.858-5.858-15.355 0-21.213 5.859-5.858 15.355-5.858 21.215 0 5.858 5.858 5.858 15.355 0 21.213-5.859 5.858-15.355 5.858-21.215 0zM22.956 7.045c-4.395-4.394-11.517-4.394-15.91 0-4.395 4.394-4.395 11.517 0 15.91 4.393 4.394 11.516 4.394 15.91 0 4.393-4.394 4.393-11.517 0-15.91zM11.023 21.629l-2.651-2.652 3.977-3.977-3.977-3.977 2.651-2.652 3.977 3.978 3.977-3.978 2.651 2.652-3.977 3.977 3.977 3.977-2.651 2.652-3.977-3.978-3.977 3.978z" fill="#eeeeee" />
</svg>
