<?xml version="1.0" encoding="utf-8"?>
<!-- Generated by IcoMoon.io -->
<!DOCTYPE svg PUBLIC "-//W3C//DTD SVG 1.1//EN" "http://www.w3.org/Graphics/SVG/1.1/DTD/svg11.dtd">
<svg version="1.1" xmlns="http://www.w3.org/2000/svg" xmlns:xlink="http://www.w3.org/1999/xlink" width="30" height="30" viewBox="0 0 30 30">
	<path d="M7.5 19.5h-1.5c-0.828 0-1.5 0.67-1.5 1.5s0.672 1.5 1.5 1.5h1.5c0.828 0 1.5-0.67 1.5-1.5s-0.672-1.5-1.5-1.5zM7.5 13.5h-1.5c-0.828 0-1.5 0.672-1.5 1.5s0.672 1.5 1.5 1.5h1.5c0.828 0 1.5-0.672 1.5-1.5s-0.672-1.5-1.5-1.5zM7.5 7.5h-1.5c-0.828 0-1.5 0.672-1.5 1.5s0.672 1.5 1.5 1.5h1.5c0.828 0 1.5-0.672 1.5-1.5s-0.672-1.5-1.5-1.5zM13.5 10.5h10.5c0.83 0 1.5-0.672 1.5-1.5s-0.67-1.5-1.5-1.5h-10.5c-0.828 0-1.5 0.672-1.5 1.5s0.672 1.5 1.5 1.5zM24 13.5h-10.5c-0.828 0-1.5 0.672-1.5 1.5s0.672 1.5 1.5 1.5h10.5c0.83 0 1.5-0.672 1.5-1.5s-0.67-1.5-1.5-1.5zM24 19.5h-10.5c-0.828 0-1.5 0.67-1.5 1.5s0.672 1.5 1.5 1.5h10.5c0.83 0 1.5-0.67 1.5-1.5s-0.67-1.5-1.5-1.5z" fill="#eeeeee" />
</svg>
