<?xml version="1.0" encoding="utf-8"?>
<!-- Generated by IcoMoon.io -->
<!DOCTYPE svg PUBLIC "-//W3C//DTD SVG 1.1//EN" "http://www.w3.org/Graphics/SVG/1.1/DTD/svg11.dtd">
<svg version="1.1" xmlns="http://www.w3.org/2000/svg" xmlns:xlink="http://www.w3.org/1999/xlink" width="210" height="30" viewBox="0 0 210 30">
<g transform="translate(0 0)">
	<path d="M24.841 5.157c-2.163-2.165-3.787-1.84-3.787-1.84l-16.239 16.239-1.515 7.145 7.145-1.515 16.238-16.238c0 0 0.325-1.625-1.84-3.79zM10.019 24.325l-2.435 0.525c-0.235-0.44-0.519-0.879-1.036-1.398-0.518-0.517-0.959-0.8-1.398-1.035l0.526-2.436 0.704-0.704c0 0 1.326 0.027 2.821 1.523 1.497 1.497 1.524 2.823 1.524 2.823l-0.706 0.702z" fill="#eeeeee" />
</g>
<g transform="translate(60 0)">
	<path d="M15 3.75c-7.249 0-13.125 5.876-13.125 13.125s5.876 13.125 13.125 13.125 13.125-5.876 13.125-13.125-5.876-13.125-13.125-13.125zM15 27.422c-5.825 0-10.547-4.722-10.547-10.547 0-5.825 4.722-10.547 10.547-10.547 5.825 0 10.547 4.722 10.547 10.547 0 5.825-4.722 10.547-10.547 10.547zM27.386 8.413c0.47-0.822 0.739-1.774 0.739-2.788 0-3.107-2.518-5.625-5.625-5.625-1.811 0-3.422 0.856-4.451 2.185 3.864 0.798 7.184 3.082 9.337 6.228zM11.951 2.185c-1.029-1.329-2.64-2.185-4.451-2.185-3.107 0-5.625 2.518-5.625 5.625 0 1.015 0.269 1.966 0.739 2.788 2.153-3.146 5.473-5.43 9.337-6.228zM13.125 9.375h1.875v9.375h-1.875v-9.375zM15 16.875h5.625v1.875h-5.625v-1.875z" fill="#eeeeee" />
</g>
<g transform="translate(120 0)">
	<path d="M4.393 25.606c-5.858-5.858-5.858-15.355 0-21.213 5.859-5.858 15.355-5.858 21.215 0 5.858 5.858 5.858 15.355 0 21.213-5.859 5.858-15.355 5.858-21.215 0zM22.956 7.045c-4.395-4.394-11.517-4.394-15.91 0-4.395 4.394-4.395 11.517 0 15.91 4.393 4.394 11.516 4.394 15.91 0 4.393-4.394 4.393-11.517 0-15.91zM11.023 21.629l-2.651-2.652 3.977-3.977-3.977-3.977 2.651-2.652 3.977 3.978 3.977-3.978 2.651 2.652-3.977 3.977 3.977 3.977-2.651 2.652-3.977-3.978-3.977 3.978z" fill="#eeeeee" />
</g>
<g transform="translate(180 0)">
	<path d="M7.5 19.5h-1.5c-0.828 0-1.5 0.67-1.5 1.5s0.672 1.5 1.5 1.5h1.5c0.828 0 1.5-0.67 1.5-1.5s-0.672-1.5-1.5-1.5zM7.5 13.5h-1.5c-0.828 0-1.5 0.672-1.5 1.5s0.672 1.5 1.5 1.5h1.5c0.828 0 1.5-0.672 1.5-1.5s-0.672-1.5-1.5-1.5zM7.5 7.5h-1.5c-0.828 0-1.5 0.672-1.5 1.5s0.672 1.5 1.5 1.5h1.5c0.828 0 1.5-0.672 1.5-1.5s-0.672-1.5-1.5-1.5zM13.5 10.5h10.5c0.83 0 1.5-0.672 1.5-1.5s-0.67-1.5-1.5-1.5h-10.5c-0.828 0-1.5 0.672-1.5 1.5s0.672 1.5 1.5 1.5zM24 13.5h-10.5c-0.828 0-1.5 0.672-1.5 1.5s0.672 1.5 1.5 1.5h10.5c0.83 0 1.5-0.672 1.5-1.5s-0.67-1.5-1.5-1.5zM24 19.5h-10.5c-0.828 0-1.5 0.67-1.5 1.5s0.672 1.5 1.5 1.5h10.5c0.83 0 1.5-0.67 1.5-1.5s-0.67-1.5-1.5-1.5z" fill="#eeeeee" />
</g>
</svg>
